<mxfile host="Electron" agent="Mozilla/5.0 (X11; Linux x86_64) AppleWebKit/537.36 (KHTML, like Gecko) draw.io/27.0.9 Chrome/134.0.6998.205 Electron/35.4.0 Safari/537.36" version="27.0.9">
  <diagram name="Страница — 1" id="mDp-kAdFJQ0qItsy62RT">
    <mxGraphModel dx="1360" dy="843" grid="1" gridSize="10" guides="1" tooltips="1" connect="1" arrows="1" fold="1" page="1" pageScale="1" pageWidth="400" pageHeight="300" math="0" shadow="0">
      <root>
        <mxCell id="0" />
        <mxCell id="1" parent="0" />
        <mxCell id="Zv-RcMeyph5za7n-svtJ-6" style="edgeStyle=orthogonalEdgeStyle;rounded=0;orthogonalLoop=1;jettySize=auto;html=1;exitX=1;exitY=0.3333333333333333;exitDx=0;exitDy=0;exitPerimeter=0;entryX=0;entryY=0.5;entryDx=0;entryDy=0;" edge="1" parent="1" source="Zv-RcMeyph5za7n-svtJ-1" target="Zv-RcMeyph5za7n-svtJ-2">
          <mxGeometry relative="1" as="geometry" />
        </mxCell>
        <mxCell id="Zv-RcMeyph5za7n-svtJ-7" style="edgeStyle=orthogonalEdgeStyle;rounded=0;orthogonalLoop=1;jettySize=auto;html=1;exitX=1;exitY=0.3333333333333333;exitDx=0;exitDy=0;exitPerimeter=0;entryX=0;entryY=0.5;entryDx=0;entryDy=0;" edge="1" parent="1" source="Zv-RcMeyph5za7n-svtJ-1" target="Zv-RcMeyph5za7n-svtJ-3">
          <mxGeometry relative="1" as="geometry" />
        </mxCell>
        <mxCell id="Zv-RcMeyph5za7n-svtJ-8" style="edgeStyle=orthogonalEdgeStyle;rounded=0;orthogonalLoop=1;jettySize=auto;html=1;exitX=1;exitY=0.3333333333333333;exitDx=0;exitDy=0;exitPerimeter=0;entryX=0;entryY=0.5;entryDx=0;entryDy=0;" edge="1" parent="1" source="Zv-RcMeyph5za7n-svtJ-1" target="Zv-RcMeyph5za7n-svtJ-4">
          <mxGeometry relative="1" as="geometry" />
        </mxCell>
        <mxCell id="Zv-RcMeyph5za7n-svtJ-1" value="Пользователь" style="shape=umlActor;verticalLabelPosition=bottom;verticalAlign=top;html=1;" vertex="1" parent="1">
          <mxGeometry x="50" y="125" width="30" height="60" as="geometry" />
        </mxCell>
        <mxCell id="Zv-RcMeyph5za7n-svtJ-2" value="Сгенерировать граф" style="ellipse;whiteSpace=wrap;html=1;" vertex="1" parent="1">
          <mxGeometry x="160" y="20" width="120" height="70" as="geometry" />
        </mxCell>
        <mxCell id="Zv-RcMeyph5za7n-svtJ-3" value="Запустить алгоритм&lt;div&gt;Louvain&lt;/div&gt;" style="ellipse;whiteSpace=wrap;html=1;" vertex="1" parent="1">
          <mxGeometry x="160" y="110" width="120" height="70" as="geometry" />
        </mxCell>
        <mxCell id="Zv-RcMeyph5za7n-svtJ-4" value="Разметить людей по сообществам" style="ellipse;whiteSpace=wrap;html=1;" vertex="1" parent="1">
          <mxGeometry x="160" y="200" width="120" height="70" as="geometry" />
        </mxCell>
      </root>
    </mxGraphModel>
  </diagram>
</mxfile>
